<svg width="180" height="42" viewBox="0 0 180 42" fill="none" xmlns="http://www.w3.org/2000/svg">
  <text x="0" y="31" font-family="Inter, Arial, sans-serif" font-size="22" font-weight="800" fill="#0D2A57">Hanoi</text>
  <text x="93" y="31" font-family="Inter, Arial, sans-serif" font-size="22" font-weight="800" fill="#E11D2F">Re</text>
  <g transform="translate(128 5)" fill="#E11D2F">
    <circle cx="16" cy="16" r="5"/>
    <rect x="14.5" y="0" width="3" height="10" rx="1.5"/>
    <rect x="14.5" y="22" width="3" height="10" rx="1.5"/>
    <rect x="0" y="14.5" width="10" height="3" rx="1.5"/>
    <rect x="22" y="14.5" width="10" height="3" rx="1.5"/>
    <rect x="4" y="4" width="3" height="8" rx="1.5" transform="rotate(-45 4 4)"/>
    <rect x="24" y="26" width="3" height="8" rx="1.5" transform="rotate(-45 24 26)"/>
    <rect x="26" y="4" width="3" height="8" rx="1.5" transform="rotate(45 26 4)"/>
    <rect x="6" y="26" width="3" height="8" rx="1.5" transform="rotate(45 6 26)"/>
  </g>
</svg>
